<svg xmlns="http://www.w3.org/2000/svg" viewBox="0 0 36 36">
  <!-- Background -->
  <rect width="36" height="36" rx="10" fill="url(#flameGrad)"/>

  <!-- Outer flame -->
  <path
    d="M18 6C18 6 22 11 22 15C22 15 23.5 13 23 11C23 11 27 14 27 19C27 23.5 23 27 18 27C13 27 9 23.5 9 19C9 14.5 13 11 13 11C13 11 13 14 15 15C15 15 14 10 18 6Z"
    fill="white"
    opacity="0.95"
  />

  <!-- Inner flame -->
  <path
    d="M18 17C18 17 20 19.5 20 21.5C20 22.8 19.1 24 18 24C16.9 24 16 22.8 16 21.5C16 19.5 18 17 18 17Z"
    fill="url(#innerFlame)"
  />

  <!-- Gradients -->
  <defs>
    <linearGradient id="flameGrad" x1="0" y1="0" x2="36" y2="36" gradientUnits="userSpaceOnUse">
      <stop offset="0%" stop-color="#E23744"/>
      <stop offset="100%" stop-color="#c0202d"/>
    </linearGradient>

    <linearGradient id="innerFlame" x1="18" y1="17" x2="18" y2="24" gradientUnits="userSpaceOnUse">
      <stop offset="0%" stop-color="#ff6b6b"/>
      <stop offset="100%" stop-color="#E23744"/>
    </linearGradient>
  </defs>
</svg>
